<?xml version="1.0" encoding="utf-8"?>
<!-- Generator: Adobe Illustrator 22.1.0, SVG Export Plug-In . SVG Version: 6.00 Build 0)  -->
<svg version="1.1" id="Layer_1" xmlns="http://www.w3.org/2000/svg" xmlns:xlink="http://www.w3.org/1999/xlink" x="0px" y="0px"
	 viewBox="0 0 72 72" style="enable-background:new 0 0 72 72;" xml:space="preserve">
<style type="text/css">
	.st0{fill:#5BAA5D;}
	.st1{fill:#310E31;}
	.st2{fill:#80C56D;}
	.st3{fill:#AAD378;}
	.st4{fill:#3A8E4E;}
	.st5{fill:#BCDA86;}
	.st6{fill:#FDBE52;}
	.st7{fill:#F19920;}
	.st8{fill:#FFE27A;}
	.st9{fill:#FFFFFF;}
	.st10{fill:#FFCB5B;}
	.st11{fill:#F6B545;}
	.st12{fill:#B0C4D8;}
	.st13{fill:#3689C9;}
	.st14{fill:#1470B8;}
	.st15{fill:#025C9E;}
	.st16{fill:#70B7E5;}
	.st17{fill:#90CEF1;}
	.st18{fill:#C97629;}
	.st19{fill:#F04B4D;}
	.st20{fill:#C61C31;}
	.st21{fill:#FFFCD5;}
	.st22{fill:#C9D5E3;}
	.st23{fill:#E2E7F0;}
	.st24{fill:#C0CFDD;}
	.st25{fill:#DA8C36;}
	.st26{fill:#B06328;}
	.st27{fill:#A7B0C4;}
	.st28{fill:#676A75;}
	.st29{fill:#EFA460;}
	.st30{fill:#4F515B;}
	.st31{fill:#787B82;}
	.st32{fill:#444751;}
	.st33{fill:#9A9A9D;}
	.st34{fill:#FDCBA5;}
	.st35{fill:#BAB9BA;}
	.st36{fill:#A35425;}
	.st37{fill:#FFE278;}
	.st38{fill:#C15E28;}
	.st39{fill:#B04E25;}
	.st40{fill:#F5B445;}
	.st41{fill:#9A3A21;}
	.st42{fill:none;stroke:#310E31;stroke-width:4;stroke-linecap:round;stroke-linejoin:round;stroke-miterlimit:10;}
	.st43{fill:#DC7927;}
	.st44{fill:#D5E3EF;}
	.st45{fill:#B0C4D9;}
	.st46{fill:#FFEDA9;}
	.st47{fill:#99B5CD;}
	.st48{fill:#F4AA3F;}
	.st49{fill:#C4D7E5;}
</style>
<g>
	<g>
		<circle class="st12" cx="17" cy="12" r="1"/>
	</g>
	<g>
		<path class="st12" d="M20,5c-0.6,0-1-0.4-1-1s0.4-1,1-1c1.1,0,2-0.9,2-2c0-0.6,0.4-1,1-1s1,0.4,1,1C24,3.2,22.2,5,20,5z"/>
	</g>
	<g>
		<path class="st12" d="M9,19c-2.2,0-4-1.8-4-4s1.8-4,4-4c0.6,0,1,0.4,1,1s-0.4,1-1,1c-1.1,0-2,0.9-2,2s0.9,2,2,2c0.6,0,1,0.4,1,1
			S9.6,19,9,19z"/>
	</g>
	<g>
		<path class="st12" d="M16,9c-1.7,0-3-1.3-3-3s1.3-3,3-3c0.6,0,1,0.4,1,1s-0.4,1-1,1c-0.6,0-1,0.4-1,1s0.4,1,1,1c0.6,0,1,0.4,1,1
			S16.6,9,16,9z"/>
	</g>
	<g>
		<path class="st12" d="M26,13c-0.6,0-1-0.4-1-1s0.4-1,1-1c0.6,0,1-0.4,1-1s-0.4-1-1-1c-0.6,0-1-0.4-1-1s0.4-1,1-1c1.7,0,3,1.3,3,3
			S27.7,13,26,13z"/>
	</g>
	<g>
		<path class="st12" d="M22,22c-0.6,0-1-0.4-1-1c0-1.1-0.9-2-2-2c-0.6,0-1-0.4-1-1s0.4-1,1-1c2.2,0,4,1.8,4,4C23,21.6,22.6,22,22,22
			z"/>
	</g>
	<g>
		<path class="st12" d="M16,22c-0.6,0-1-0.4-1-1c0-1.1-0.9-2-2-2c-0.6,0-1-0.4-1-1s0.4-1,1-1c2.2,0,4,1.8,4,4C17,21.6,16.6,22,16,22
			z"/>
	</g>
	<g>
		<path class="st12" d="M19,19H9c-0.6,0-1-0.4-1-1s0.4-1,1-1h10c0.6,0,1,0.4,1,1S19.6,19,19,19z"/>
	</g>
	<g>
		<path class="st12" d="M14,13H9c-0.6,0-1-0.4-1-1s0.4-1,1-1h5c0.6,0,1,0.4,1,1S14.6,13,14,13z"/>
	</g>
	<g>
		<path class="st12" d="M26,13h-6c-0.6,0-1-0.4-1-1s0.4-1,1-1h6c0.6,0,1,0.4,1,1S26.6,13,26,13z"/>
	</g>
	<g>
		<path class="st12" d="M26,9H16c-0.6,0-1-0.4-1-1s0.4-1,1-1h10c0.6,0,1,0.4,1,1S26.6,9,26,9z"/>
	</g>
	<g>
		<path class="st12" d="M20,5h-4c-0.6,0-1-0.4-1-1s0.4-1,1-1h4c0.6,0,1,0.4,1,1S20.6,5,20,5z"/>
	</g>
</g>
<g>
	<g>
		<path class="st13" d="M56.1,71H21.9c-1,0-1.9-0.8-1.9-1.9l0,0c0-0.1,0-0.2,0-0.2L26,22h26l6,46.9c0,0.1,0,0.2,0,0.2v0
			C58,70.2,57.2,71,56.1,71z"/>
	</g>
	<g>
		<path class="st14" d="M58,68.9L52,22h-5.5H39v1c0,0.6,0.4,1,1,1h2.1c1.1,0,2,0.8,2,1.9l1.8,41C46,68,45,69,43.9,69H20
			c0,0,0,0.1,0,0.1c0,1,0.8,1.9,1.9,1.9h27H52h4.1c1,0,1.9-0.8,1.9-1.9C58,69,58,69,58,68.9z"/>
	</g>
	<g>
		<g>
			<path class="st15" d="M56.6,59.1c-0.4,0-0.8-0.3-1-0.7l-7.9-33.1c-0.1-0.3,0-0.6,0.2-0.9c0.2-0.2,0.5-0.4,0.8-0.4H52
				c0.6,0,1,0.4,1,1s-0.4,1-1,1h-2l7.6,31.9c0.1,0.5-0.2,1.1-0.7,1.2C56.8,59.1,56.7,59.1,56.6,59.1z"/>
		</g>
	</g>
	<g>
		<path class="st15" d="M53.5,41L53.5,41c-0.9,0-1.5,0.7-1.4,1.6l3,26.4c0,0,0,0.1,0,0.1c0,0.5-0.4,0.9-0.8,0.9h1.9
			c0.5,0,0.9-0.4,0.9-0.9c0,0,0-0.1,0-0.1L53.5,41z"/>
	</g>
	<g>
		<g>
			<path class="st16" d="M34,69.1c0,0,0-0.1,0-0.1l1.6-46h-5.4L26,69c0,0,0,0.1,0,0.1c0,0.5,0.3,0.9,0.6,0.9h7.6
				C34.1,70,34,69.6,34,69.1z"/>
		</g>
	</g>
	<g>
		<path class="st1" d="M56.1,72H21.9c-1.6,0-2.9-1.3-2.9-2.9c0-0.1,0-0.2,0-0.4l6-46.9c0.1-0.5,0.5-0.9,1-0.9h26
			c0.5,0,0.9,0.4,1,0.9l6,46.9c0,0.1,0,0.2,0,0.4C59,70.7,57.7,72,56.1,72z M26.9,23L21,69c0,0,0,0.1,0,0.1c0,0.5,0.4,0.9,0.9,0.9
			h34.2c0.5,0,0.9-0.4,0.9-0.9c0,0,0-0.1,0-0.1l-5.9-46H26.9z"/>
	</g>
	<g>
		<path class="st13" d="M51,22H27c-1.1,0-2-0.9-2-2v0c0-1.1,0.9-2,2-2h24c1.1,0,2,0.9,2,2v0C53,21.1,52.1,22,51,22z"/>
	</g>
	<g>
		<path class="st1" d="M51,23H27c-1.7,0-3-1.3-3-3s1.3-3,3-3h24c1.7,0,3,1.3,3,3S52.7,23,51,23z M27,19c-0.6,0-1,0.4-1,1s0.4,1,1,1
			h24c0.6,0,1-0.4,1-1s-0.4-1-1-1H27z"/>
	</g>
	<g>
		<path class="st13" d="M50,18H28l2.1-3.5c0.5-0.9,1.5-1.5,2.6-1.5h12.6c1.1,0,2,0.6,2.6,1.5L50,18z"/>
	</g>
	<g>
		<g>
			<path class="st16" d="M37,14h-3.4c-0.6,0-1.2,0.4-1.5,1L31,17h5l0.4-2C36.5,14.4,36.7,14,37,14z"/>
		</g>
	</g>
	<g>
		<path class="st1" d="M50,19H28c-0.4,0-0.7-0.2-0.9-0.5c-0.2-0.3-0.2-0.7,0-1l2.1-3.5c0.7-1.2,2-1.9,3.4-1.9h12.6
			c1.4,0,2.7,0.7,3.4,1.9l2.1,3.5c0.2,0.3,0.2,0.7,0,1C50.7,18.8,50.4,19,50,19z M29.8,17h18.5L47,15c-0.4-0.6-1-1-1.7-1H32.7
			c-0.7,0-1.4,0.4-1.7,1L29.8,17z"/>
	</g>
	<g>
		<path class="st1" d="M43,14h-8c-0.6,0-1-0.4-1-1v-2c0-1.7,1.3-3,3-3h4c1.7,0,3,1.3,3,3v2C44,13.6,43.6,14,43,14z M36,12h6v-1
			c0-0.6-0.4-1-1-1h-4c-0.6,0-1,0.4-1,1V12z"/>
	</g>
	<g>
		<path class="st13" d="M22.5,45.8l0.4,0.2l2.7-21H15l5.5,18.3C20.8,44.4,21.6,45.3,22.5,45.8z"/>
	</g>
	<g>
		<path class="st14" d="M22.4,33.9c-0.7,1.4-2.6,1.6-3.5,0.4c0,0,0,0,0,0l2.6,8.7c0.1,0.4,0.4,0.9,0.7,1.2l1.7-13.4L22.4,33.9z"/>
	</g>
	<g>
		<path class="st1" d="M22.9,47c-0.2,0-0.3,0-0.4-0.1l-0.4-0.2h0c-1.2-0.6-2.2-1.7-2.6-3L14,25.3c-0.1-0.3,0-0.6,0.2-0.9
			c0.2-0.3,0.5-0.4,0.8-0.4h10.6c0.3,0,0.6,0.1,0.8,0.3c0.2,0.2,0.3,0.5,0.2,0.8l-2.7,21c0,0.3-0.2,0.6-0.5,0.8
			C23.3,46.9,23.1,47,22.9,47z M16.3,26l5.1,17.1c0.1,0.4,0.4,0.9,0.7,1.2L24.5,26H16.3z"/>
	</g>
	<g>
		<path class="st1" d="M56.6,59.1c-0.1,0-0.2,0-0.3-0.1c-0.5-0.2-0.8-0.8-0.6-1.3l6.4-17.5c0.6-1.7,0.9-3.4,0.9-5.2V30
			c0-2.2-1.8-4-4-4h-6.6c-0.6,0-1-0.4-1-1s0.4-1,1-1H59c3.3,0,6,2.7,6,6v5.2c0,2-0.4,4-1,5.9l-6.4,17.5C57.4,58.9,57,59.1,56.6,59.1
			z"/>
	</g>
	<g>
		<path class="st16" d="M35.5,20h-7c-0.3,0-0.5-0.2-0.5-0.5l0,0c0-0.3,0.2-0.5,0.5-0.5h7c0.3,0,0.5,0.2,0.5,0.5l0,0
			C36,19.8,35.8,20,35.5,20z"/>
	</g>
	<g>
		<path class="st14" d="M43.8,16.4L44,17h4.2L47,15h-2.4C44,15,43.5,15.7,43.8,16.4z"/>
	</g>
	<g>
		<path class="st14" d="M50.9,19h-4.4c-0.3,0-0.5,0.2-0.5,0.5l0,0c0,0.3-0.2,0.5-0.5,0.5H40c-0.6,0-1,0.4-1,1v0h7h5
			c0.6,0,1.1-0.5,1-1.2C51.9,19.3,51.4,19,50.9,19z"/>
	</g>
	<g>
		<path class="st1" d="M15,26h-1c-0.6,0-1-0.4-1-1s0.4-1,1-1h1c0.6,0,1,0.4,1,1S15.6,26,15,26z"/>
	</g>
	<g>
		<path class="st1" d="M26,23h-1c-0.6,0-1-0.4-1-1s0.4-1,1-1h1c0.6,0,1,0.4,1,1S26.6,23,26,23z"/>
	</g>
	<g>
		<path class="st1" d="M53,23h-1c-0.6,0-1-0.4-1-1s0.4-1,1-1h1c0.6,0,1,0.4,1,1S53.6,23,53,23z"/>
	</g>
	<g>
		<path class="st13" d="M26.6,70h7.6c-0.1,0-0.2-0.4-0.2-0.9c0,0,0-0.1,0-0.1l0,0h-8l0,0c0,0,0,0.1,0,0.1C26,69.6,26.3,70,26.6,70z"
			/>
	</g>
	<g>
		<path class="st16" d="M22.5,26h-6.2l0.3,1h0l1.5,5.1c0.1,0.2,0.3,0.4,0.5,0.4c0,0,0.1,0,0.1,0c0.3-0.1,0.4-0.4,0.3-0.6l-1.1-3.6
			c-0.2-0.6,0.3-1.3,1-1.3h3.5c0.3,0,0.5-0.2,0.5-0.5C23,26.2,22.8,26,22.5,26z"/>
	</g>
	<g>
		<path class="st14" d="M33,48L33,48L33,48l-5,0h-4.3L21,69c0,0,0,0.1,0,0.1c0,0.5,0.4,0.9,0.9,0.9h10.5c-0.2,0-0.3-0.4-0.3-0.9
			c0,0,0-0.1,0-0.1l0.9-19H33c0.6,0,1-0.4,1-1C34,48.5,33.6,48,33,48z"/>
	</g>
	<g>
		<path class="st13" d="M32,69.1c0,0,0-0.1,0-0.1l0.9-19H33c0.6,0,1-0.4,1-1c0-0.5-0.4-1-1-1l0,0h0h-5h-0.1L26,69c0,0,0,0.1,0,0.1
			c0,0.5,0.3,0.9,0.6,0.9h5.7C32.2,70,32,69.6,32,69.1z"/>
	</g>
	<g>
		<path class="st14" d="M26.6,70h5.7c-0.2,0-0.3-0.4-0.3-0.9c0,0,0-0.1,0-0.1l0,0h-6l0,0c0,0,0,0.1,0,0.1C26,69.6,26.3,70,26.6,70z"
			/>
	</g>
	<g>
		<path class="st17" d="M32.4,44.8L33.6,23h-2l-1.7,21.7c-0.1,0.7,0.5,1.3,1.2,1.3h0C31.8,46,32.3,45.5,32.4,44.8z"/>
	</g>
</g>
<g>
	<g>
		<ellipse transform="matrix(0.7071 -0.7071 0.7071 0.7071 -30.1812 60.136)" class="st18" cx="57.5" cy="66.5" rx="4" ry="5"/>
		<path class="st1" d="M58.5,72c-0.2,0-0.4,0-0.6,0c-1.4-0.2-2.8-0.8-3.9-1.9c-1.1-1.1-1.8-2.5-1.9-3.9c-0.2-1.5,0.3-2.9,1.2-3.8
			c1-1,2.3-1.4,3.8-1.2c1.4,0.2,2.8,0.8,3.9,1.9c1.1,1.1,1.8,2.5,1.9,3.9c0.2,1.5-0.3,2.9-1.2,3.8C60.9,71.6,59.8,72,58.5,72z
			 M56.5,63c-0.7,0-1.4,0.2-1.8,0.7c-0.5,0.5-0.8,1.3-0.7,2.2c0.1,1,0.6,1.9,1.4,2.7c0.8,0.8,1.7,1.3,2.7,1.4
			c0.9,0.1,1.7-0.1,2.2-0.7c0.5-0.5,0.8-1.3,0.7-2.2c-0.1-1-0.6-1.9-1.4-2.7c-0.8-0.8-1.7-1.3-2.7-1.4C56.8,63,56.6,63,56.5,63z"/>
	</g>
	<g>
		<path class="st1" d="M57.5,67c-0.2,0-0.5-0.2-0.5-0.4c-0.2-1.5-1.6-2.9-3.1-3.1c-0.3,0-0.5-0.3-0.4-0.6c0-0.3,0.3-0.5,0.6-0.4
			c2,0.3,3.7,2,3.9,3.9C58,66.7,57.8,67,57.5,67C57.5,67,57.5,67,57.5,67z"/>
	</g>
	<g>
		<path class="st1" d="M61,70.5C61,70.5,61,70.5,61,70.5c-2-0.3-3.8-2-4-4c0-0.3,0.2-0.5,0.4-0.6c0.3,0,0.5,0.2,0.6,0.4
			c0.2,1.5,1.6,2.9,3.1,3.1c0.3,0,0.5,0.3,0.4,0.6C61.5,70.3,61.3,70.5,61,70.5z"/>
	</g>
</g>
<g>
	<g>
		<g>
			<path class="st13" d="M26,71H12c-1.1,0-2-0.9-2-2V49h18v20C28,70.1,27.1,71,26,71z"/>
		</g>
		<g>
			<path class="st1" d="M26,72H12c-1.7,0-3-1.3-3-3V49c0-0.6,0.4-1,1-1h18c0.6,0,1,0.4,1,1v20C29,70.7,27.7,72,26,72z M11,50v19
				c0,0.6,0.4,1,1,1h14c0.6,0,1-0.4,1-1V50H11z"/>
		</g>
	</g>
	<g>
		<path class="st1" d="M29,50H9c-0.6,0-1-0.4-1-1s0.4-1,1-1h20c0.6,0,1,0.4,1,1S29.6,50,29,50z"/>
	</g>
	<g>
		<path class="st1" d="M10,67c-0.1,0-0.2,0-0.3-0.1l-2.6-0.9C4.6,65.3,3,63,3,60.4V55c0-2.2,1.8-4,4-4h3c0.6,0,1,0.4,1,1s-0.4,1-1,1
			H7c-1.1,0-2,0.9-2,2v5.4c0,1.7,1.1,3.2,2.7,3.8l2.6,0.9c0.5,0.2,0.8,0.7,0.6,1.3C10.8,66.7,10.4,67,10,67z"/>
	</g>
	<g>
		<path class="st14" d="M21,50h-3l0,0c0,0.6,0.4,1,1,1h1c0.6,0,1,0.4,1,1v15c0,1.1-0.9,2-2,2h-8c0,0.6,0.4,1,1,1h8.8H25h1
			c0.6,0,1-0.4,1-1V50H21z"/>
	</g>
	<g>
		<g>
			<path class="st16" d="M17,69V52c0-0.6-0.4-1-1-1h-2c-0.6,0-1,0.4-1,1v17c0,0.6,0.3,1,0.8,1h3.5C17.1,70,17,69.6,17,69z"/>
		</g>
	</g>
	<g>
		<g>
			<path class="st15" d="M27,54c-0.6,0-1,0.4-1,1v14c0,0.6-0.4,1-0.9,1H26c0.6,0,1-0.4,1-1L27,54L27,54z"/>
		</g>
	</g>
	<g>
		<path class="st13" d="M17,69h-4c0,0.6,0.3,1,0.8,1h3.5C17.1,70,17,69.6,17,69z"/>
	</g>
</g>
<g>
	<g>
		<ellipse class="st18" cx="50" cy="67" rx="5" ry="4"/>
		<path class="st1" d="M50,72c-3.3,0-6-2.2-6-5s2.7-5,6-5s6,2.2,6,5S53.3,72,50,72z M50,64c-2.2,0-4,1.3-4,3s1.8,3,4,3s4-1.3,4-3
			S52.2,64,50,64z"/>
	</g>
	<g>
		<path class="st1" d="M47.5,68.3c-1,0-2-0.3-2.8-0.9c-0.2-0.2-0.3-0.5-0.1-0.7c0.2-0.2,0.5-0.3,0.7-0.1c1.2,0.9,3.2,0.9,4.4,0
			c0.2-0.2,0.5-0.1,0.7,0.1c0.2,0.2,0.1,0.5-0.1,0.7C49.5,68,48.5,68.3,47.5,68.3z"/>
	</g>
	<g>
		<path class="st1" d="M55,67.5c-0.1,0-0.2,0-0.3-0.1c-1.2-0.9-3.2-0.9-4.4,0c-0.2,0.2-0.5,0.1-0.7-0.1c-0.2-0.2-0.1-0.5,0.1-0.7
			c1.6-1.2,4-1.2,5.6,0c0.2,0.2,0.3,0.5,0.1,0.7C55.3,67.4,55.1,67.5,55,67.5z"/>
	</g>
</g>
<g>
	<path class="st1" d="M68,72H6c-0.6,0-1-0.4-1-1s0.4-1,1-1h62c0.6,0,1,0.4,1,1S68.6,72,68,72z"/>
</g>
</svg>
